<mxfile host="app.diagrams.net" modified="2024-04-23T04:37:56.043Z" agent="Mozilla/5.0 (Windows NT 10.0; Win64; x64) AppleWebKit/537.36 (KHTML, like Gecko) Chrome/123.0.0.0 Safari/537.36" version="24.2.8" etag="9Q26z61W8Pq00tvF2pdx" type="github">
  <diagram name="Page-1" id="vEEtF86nCDA31R2haeOQ">
    <mxGraphModel>
      <root>
        <mxCell id="0" />
        <mxCell id="1" parent="0" />
      </root>
    </mxGraphModel>
  </diagram>
</mxfile>
